<?xml version="1.0" encoding="UTF-8"?>
<svg width="120px" height="156px" viewBox="0 0 120 156" version="1.1" xmlns="http://www.w3.org/2000/svg" xmlns:xlink="http://www.w3.org/1999/xlink">
    <title>Group</title>
    <g id="Wireframe" stroke="none" stroke-width="1" fill="none" fill-rule="evenodd">
        <g id="Landing-page" transform="translate(-137.000000, -259.000000)">
            <g id="Group" transform="translate(137.000000, 259.000000)">
                <path d="M59.5796973,155.294118 C59.5796973,155.294118 120,89.4859311 120,56.5721754 C120,23.6584197 95.0394813,0 59.5796973,0 C24.1199133,0 0,23.6584197 0,56.5721754 C0,89.4859311 59.5796973,155.294118 59.5796973,155.294118 Z" id="Oval" fill="#FFFFFF"></path>
                <rect id="Rectangle" fill="#FC8400" x="27.2727273" y="63.569697" width="65.4545455" height="21.8181818"></rect>
                <path d="M32.2727273,23.4 L87.7272727,23.4 C90.4886965,23.4 92.7272727,25.6385763 92.7272727,28.4 L92.7272727,59.9333333 L92.7272727,59.9333333 L81.080817,59.9333333 L81.080817,42.0798682 C81.080817,40.423014 79.7376713,39.0798682 78.080817,39.0798682 L41.961039,39.0798682 C40.3041847,39.0798682 38.961039,40.423014 38.961039,42.0798682 C38.961039,48.0310233 38.961039,53.9821783 38.961039,59.9333333 C48.3642522,59.9333333 44.4681483,59.9333333 27.2727273,59.9333333 L27.2727273,28.4 C27.2727273,25.6385763 29.5113035,23.4 32.2727273,23.4 Z" id="Rectangle" fill="#FC8400"></path>
                <circle id="Oval" fill="#FFFFFF" cx="40" cy="72.6606061" r="5.45454545"></circle>
                <circle id="Oval" fill="#FFFFFF" cx="80" cy="72.6606061" r="5.45454545"></circle>
                <line x1="21.8181818" y1="50.3878788" x2="21.8181818" y2="58.569697" id="Line-3" stroke="#FC8400" stroke-width="4" stroke-linecap="round"></line>
                <line x1="98.1818182" y1="50.3878788" x2="98.1818182" y2="58.569697" id="Line-3" stroke="#FC8400" stroke-width="4" stroke-linecap="round"></line>
                <rect id="Rectangle" fill="#FFFFFF" x="38.1818182" y="28.6727273" width="43.6363636" height="4" rx="2"></rect>
                <path d="M40.343072,82.3212121 L41.4751098,82.3212121 C44.3628752,82.3212121 46.7038716,84.6622085 46.7038716,87.5499739 C46.7038716,88.529947 46.4284756,89.4901966 45.9090909,90.3212121 C44.1832011,93.0826359 40.5455147,93.922102 37.7840909,92.1962121 C37.0248374,91.7216787 36.3836243,91.0804656 35.9090909,90.3212121 C34.3785783,87.872392 35.1230137,84.6465054 37.5718338,83.1159928 C38.4028493,82.5966081 39.363099,82.3212121 40.343072,82.3212121 Z" id="Path-5" fill="#FC8400"></path>
                <path d="M79.4097387,82.3212121 L80.5417764,82.3212121 C83.4295418,82.3212121 85.7705382,84.6622085 85.7705382,87.5499739 C85.7705382,88.529947 85.4951423,89.4901966 84.9757576,90.3212121 C83.2498677,93.0826359 79.6121813,93.922102 76.8507576,92.1962121 C76.0915041,91.7216787 75.450291,91.0804656 74.9757576,90.3212121 C73.445245,87.872392 74.1896803,84.6465054 76.6385005,83.1159928 C77.469516,82.5966081 78.4297657,82.3212121 79.4097387,82.3212121 Z" id="Path-5" fill="#FC8400"></path>
            </g>
        </g>
    </g>
</svg>